<mxfile host="app.diagrams.net" agent="Mozilla/5.0 (Windows NT 10.0; Win64; x64) AppleWebKit/537.36 (KHTML, like Gecko) Chrome/131.0.0.0 Safari/537.36" version="26.0.7">
  <diagram id="xWr2Er4t82YqYA30KSLj" name="Page-2">
    <mxGraphModel dx="2398" dy="1398" grid="1" gridSize="10" guides="1" tooltips="1" connect="1" arrows="1" fold="1" page="1" pageScale="1" pageWidth="1100" pageHeight="1700" math="0" shadow="0">
      <root>
        <mxCell id="0" />
        <mxCell id="1" parent="0" />
        <mxCell id="wobP2IaSqv85BQ5EtLf1-1" value="Application Logic" style="shape=folder;fontStyle=1;tabWidth=140;tabHeight=30;tabPosition=left;html=1;boundedLbl=1;labelInHeader=1;container=1;collapsible=0;recursiveResize=0;whiteSpace=wrap;" parent="1" vertex="1">
          <mxGeometry x="1250" y="1480" width="2620" height="1110" as="geometry" />
        </mxCell>
        <mxCell id="wobP2IaSqv85BQ5EtLf1-2" value="Service Package" style="shape=folder;fontStyle=1;tabWidth=110;tabHeight=30;tabPosition=left;html=1;boundedLbl=1;labelInHeader=1;container=1;collapsible=0;whiteSpace=wrap;fillColor=#f5f5f5;fontColor=#333333;strokeColor=#666666;" parent="wobP2IaSqv85BQ5EtLf1-1" vertex="1">
          <mxGeometry x="40" y="80" width="750" height="380" as="geometry" />
        </mxCell>
        <mxCell id="wobP2IaSqv85BQ5EtLf1-3" value="" style="html=1;strokeColor=none;resizeWidth=1;resizeHeight=1;fillColor=none;part=1;connectable=0;allowArrows=0;deletable=0;whiteSpace=wrap;" parent="wobP2IaSqv85BQ5EtLf1-2" vertex="1">
          <mxGeometry width="750.0000000000001" height="266" relative="1" as="geometry">
            <mxPoint y="30" as="offset" />
          </mxGeometry>
        </mxCell>
        <mxCell id="wobP2IaSqv85BQ5EtLf1-4" value="Service" style="shape=folder;fontStyle=1;tabWidth=110;tabHeight=30;tabPosition=left;html=1;boundedLbl=1;labelInHeader=1;container=1;collapsible=0;whiteSpace=wrap;" parent="wobP2IaSqv85BQ5EtLf1-2" vertex="1">
          <mxGeometry x="40" y="50" width="275" height="270" as="geometry" />
        </mxCell>
        <mxCell id="wobP2IaSqv85BQ5EtLf1-5" value="" style="html=1;strokeColor=none;resizeWidth=1;resizeHeight=1;fillColor=none;part=1;connectable=0;allowArrows=0;deletable=0;whiteSpace=wrap;" parent="wobP2IaSqv85BQ5EtLf1-4" vertex="1">
          <mxGeometry width="275" height="189" relative="1" as="geometry">
            <mxPoint y="30" as="offset" />
          </mxGeometry>
        </mxCell>
        <mxCell id="wobP2IaSqv85BQ5EtLf1-6" value="Service" style="swimlane;fontStyle=0;childLayout=stackLayout;horizontal=1;startSize=26;horizontalStack=0;resizeParent=1;resizeParentMax=0;resizeLast=0;collapsible=1;marginBottom=0;whiteSpace=wrap;html=1;" parent="wobP2IaSqv85BQ5EtLf1-4" vertex="1">
          <mxGeometry x="21.15384615384615" y="83" width="232.69230769230765" height="78" as="geometry" />
        </mxCell>
        <mxCell id="wobP2IaSqv85BQ5EtLf1-7" value="- detailService" style="text;strokeColor=#666666;fillColor=#f5f5f5;align=left;verticalAlign=top;spacingLeft=4;spacingRight=4;overflow=hidden;rotatable=0;points=[[0,0.5],[1,0.5]];portConstraint=eastwest;whiteSpace=wrap;html=1;fontColor=#333333;" parent="wobP2IaSqv85BQ5EtLf1-6" vertex="1">
          <mxGeometry y="26" width="232.69230769230765" height="26" as="geometry" />
        </mxCell>
        <mxCell id="wobP2IaSqv85BQ5EtLf1-8" value="- statusService" style="text;strokeColor=#666666;fillColor=#f5f5f5;align=left;verticalAlign=top;spacingLeft=4;spacingRight=4;overflow=hidden;rotatable=0;points=[[0,0.5],[1,0.5]];portConstraint=eastwest;whiteSpace=wrap;html=1;fontColor=#333333;" parent="wobP2IaSqv85BQ5EtLf1-6" vertex="1">
          <mxGeometry y="52" width="232.69230769230765" height="26" as="geometry" />
        </mxCell>
        <mxCell id="wobP2IaSqv85BQ5EtLf1-9" value="Mangement" style="shape=folder;fontStyle=1;tabWidth=110;tabHeight=30;tabPosition=left;html=1;boundedLbl=1;labelInHeader=1;container=1;collapsible=0;whiteSpace=wrap;" parent="wobP2IaSqv85BQ5EtLf1-2" vertex="1">
          <mxGeometry x="460" y="50" width="252.5" height="270" as="geometry" />
        </mxCell>
        <mxCell id="wobP2IaSqv85BQ5EtLf1-10" value="" style="html=1;strokeColor=none;resizeWidth=1;resizeHeight=1;fillColor=none;part=1;connectable=0;allowArrows=0;deletable=0;whiteSpace=wrap;" parent="wobP2IaSqv85BQ5EtLf1-9" vertex="1">
          <mxGeometry width="252.5" height="189" relative="1" as="geometry">
            <mxPoint y="30" as="offset" />
          </mxGeometry>
        </mxCell>
        <mxCell id="wobP2IaSqv85BQ5EtLf1-11" value="Management" style="swimlane;fontStyle=0;childLayout=stackLayout;horizontal=1;startSize=26;fillColor=none;horizontalStack=0;resizeParent=1;resizeParentMax=0;resizeLast=0;collapsible=1;marginBottom=0;whiteSpace=wrap;html=1;" parent="wobP2IaSqv85BQ5EtLf1-9" vertex="1">
          <mxGeometry x="10.000769230769226" y="50" width="215.59615384615384" height="78" as="geometry">
            <mxRectangle x="10.000769230769226" y="50" width="110" height="30" as="alternateBounds" />
          </mxGeometry>
        </mxCell>
        <mxCell id="wobP2IaSqv85BQ5EtLf1-12" value="status" style="text;strokeColor=#666666;fillColor=#f5f5f5;align=left;verticalAlign=top;spacingLeft=4;spacingRight=4;overflow=hidden;rotatable=0;points=[[0,0.5],[1,0.5]];portConstraint=eastwest;whiteSpace=wrap;html=1;fontColor=#333333;" parent="wobP2IaSqv85BQ5EtLf1-11" vertex="1">
          <mxGeometry y="26" width="215.59615384615384" height="26" as="geometry" />
        </mxCell>
        <mxCell id="wobP2IaSqv85BQ5EtLf1-13" value="detail" style="text;strokeColor=#666666;fillColor=#f5f5f5;align=left;verticalAlign=top;spacingLeft=4;spacingRight=4;overflow=hidden;rotatable=0;points=[[0,0.5],[1,0.5]];portConstraint=eastwest;whiteSpace=wrap;html=1;fontColor=#333333;" parent="wobP2IaSqv85BQ5EtLf1-11" vertex="1">
          <mxGeometry y="52" width="215.59615384615384" height="26" as="geometry" />
        </mxCell>
        <mxCell id="wobP2IaSqv85BQ5EtLf1-14" style="edgeStyle=orthogonalEdgeStyle;rounded=0;orthogonalLoop=1;jettySize=auto;html=1;exitX=1.004;exitY=0.615;exitDx=0;exitDy=0;exitPerimeter=0;entryX=-0.006;entryY=0.657;entryDx=0;entryDy=0;entryPerimeter=0;dashed=1;" parent="wobP2IaSqv85BQ5EtLf1-2" source="wobP2IaSqv85BQ5EtLf1-4" target="wobP2IaSqv85BQ5EtLf1-9" edge="1">
          <mxGeometry relative="1" as="geometry" />
        </mxCell>
        <mxCell id="wobP2IaSqv85BQ5EtLf1-15" style="edgeStyle=orthogonalEdgeStyle;rounded=0;orthogonalLoop=1;jettySize=auto;html=1;dashed=1;exitX=0.499;exitY=0.095;exitDx=0;exitDy=0;exitPerimeter=0;" parent="wobP2IaSqv85BQ5EtLf1-1" source="wobP2IaSqv85BQ5EtLf1-16" target="wobP2IaSqv85BQ5EtLf1-39" edge="1">
          <mxGeometry relative="1" as="geometry" />
        </mxCell>
        <mxCell id="wobP2IaSqv85BQ5EtLf1-16" value="Payment Package" style="shape=folder;fontStyle=1;tabWidth=110;tabHeight=30;tabPosition=left;html=1;boundedLbl=1;labelInHeader=1;container=1;collapsible=0;whiteSpace=wrap;fillColor=#f5f5f5;fontColor=#333333;strokeColor=#666666;" parent="wobP2IaSqv85BQ5EtLf1-1" vertex="1">
          <mxGeometry x="1041" y="620" width="550" height="360" as="geometry" />
        </mxCell>
        <mxCell id="wobP2IaSqv85BQ5EtLf1-17" value="&lt;span style=&quot;color: rgba(0, 0, 0, 0); font-family: monospace; font-size: 0px; text-align: start; text-wrap-mode: nowrap;&quot;&gt;%3CmxGraphModel%3E%3Croot%3E%3CmxCell%20id%3D%220%22%2F%3E%3CmxCell%20id%3D%221%22%20parent%3D%220%22%2F%3E%3CmxCell%20id%3D%222%22%20value%3D%22-%20payReserve%22%20style%3D%22text%3BstrokeColor%3Dnone%3BfillColor%3Dnone%3Balign%3Dleft%3BverticalAlign%3Dtop%3BspacingLeft%3D4%3BspacingRight%3D4%3Boverflow%3Dhidden%3Brotatable%3D0%3Bpoints%3D%5B%5B0%2C0.5%5D%2C%5B1%2C0.5%5D%5D%3BportConstraint%3Deastwest%3BwhiteSpace%3Dwrap%3Bhtml%3D1%3B%22%20vertex%3D%221%22%20parent%3D%221%22%3E%3CmxGeometry%20x%3D%22765%22%20y%3D%22484%22%20width%3D%22140%22%20height%3D%2226%22%20as%3D%22geometry%22%2F%3E%3C%2FmxCell%3E%3C%2Froot%3E%3C%2FmxGraphModel%3E&lt;/span&gt;" style="html=1;strokeColor=none;resizeWidth=1;resizeHeight=1;fillColor=none;part=1;connectable=0;allowArrows=0;deletable=0;whiteSpace=wrap;" parent="wobP2IaSqv85BQ5EtLf1-16" vertex="1">
          <mxGeometry width="550" height="252" relative="1" as="geometry">
            <mxPoint y="30" as="offset" />
          </mxGeometry>
        </mxCell>
        <mxCell id="wobP2IaSqv85BQ5EtLf1-18" value="Transaction" style="swimlane;fontStyle=0;childLayout=stackLayout;horizontal=1;startSize=26;horizontalStack=0;resizeParent=1;resizeParentMax=0;resizeLast=0;collapsible=1;marginBottom=0;whiteSpace=wrap;html=1;" parent="wobP2IaSqv85BQ5EtLf1-16" vertex="1">
          <mxGeometry x="380" y="128" width="140" height="78" as="geometry" />
        </mxCell>
        <mxCell id="wobP2IaSqv85BQ5EtLf1-19" value="- ballance" style="text;strokeColor=none;fillColor=none;align=left;verticalAlign=top;spacingLeft=4;spacingRight=4;overflow=hidden;rotatable=0;points=[[0,0.5],[1,0.5]];portConstraint=eastwest;whiteSpace=wrap;html=1;" parent="wobP2IaSqv85BQ5EtLf1-18" vertex="1">
          <mxGeometry y="26" width="140" height="26" as="geometry" />
        </mxCell>
        <mxCell id="wobP2IaSqv85BQ5EtLf1-20" value="- bank" style="text;strokeColor=none;fillColor=none;align=left;verticalAlign=top;spacingLeft=4;spacingRight=4;overflow=hidden;rotatable=0;points=[[0,0.5],[1,0.5]];portConstraint=eastwest;whiteSpace=wrap;html=1;" parent="wobP2IaSqv85BQ5EtLf1-18" vertex="1">
          <mxGeometry y="52" width="140" height="26" as="geometry" />
        </mxCell>
        <mxCell id="wobP2IaSqv85BQ5EtLf1-21" value="Notification" style="swimlane;fontStyle=0;childLayout=stackLayout;horizontal=1;startSize=26;horizontalStack=0;resizeParent=1;resizeParentMax=0;resizeLast=0;collapsible=1;marginBottom=0;whiteSpace=wrap;html=1;" parent="wobP2IaSqv85BQ5EtLf1-16" vertex="1">
          <mxGeometry x="205" y="128" width="140" height="78" as="geometry" />
        </mxCell>
        <mxCell id="wobP2IaSqv85BQ5EtLf1-22" value="- sendEmail" style="text;strokeColor=none;fillColor=none;align=left;verticalAlign=top;spacingLeft=4;spacingRight=4;overflow=hidden;rotatable=0;points=[[0,0.5],[1,0.5]];portConstraint=eastwest;whiteSpace=wrap;html=1;" parent="wobP2IaSqv85BQ5EtLf1-21" vertex="1">
          <mxGeometry y="26" width="140" height="26" as="geometry" />
        </mxCell>
        <mxCell id="wobP2IaSqv85BQ5EtLf1-23" value="- displayresult" style="text;strokeColor=none;fillColor=none;align=left;verticalAlign=top;spacingLeft=4;spacingRight=4;overflow=hidden;rotatable=0;points=[[0,0.5],[1,0.5]];portConstraint=eastwest;whiteSpace=wrap;html=1;" parent="wobP2IaSqv85BQ5EtLf1-21" vertex="1">
          <mxGeometry y="52" width="140" height="26" as="geometry" />
        </mxCell>
        <mxCell id="wobP2IaSqv85BQ5EtLf1-24" value="Management" style="swimlane;fontStyle=0;childLayout=stackLayout;horizontal=1;startSize=26;horizontalStack=0;resizeParent=1;resizeParentMax=0;resizeLast=0;collapsible=1;marginBottom=0;whiteSpace=wrap;html=1;" parent="wobP2IaSqv85BQ5EtLf1-16" vertex="1">
          <mxGeometry x="40" y="128" width="140" height="52" as="geometry" />
        </mxCell>
        <mxCell id="wobP2IaSqv85BQ5EtLf1-25" value="- log" style="text;strokeColor=none;fillColor=none;align=left;verticalAlign=top;spacingLeft=4;spacingRight=4;overflow=hidden;rotatable=0;points=[[0,0.5],[1,0.5]];portConstraint=eastwest;whiteSpace=wrap;html=1;" parent="wobP2IaSqv85BQ5EtLf1-24" vertex="1">
          <mxGeometry y="26" width="140" height="26" as="geometry" />
        </mxCell>
        <mxCell id="wobP2IaSqv85BQ5EtLf1-26" style="edgeStyle=orthogonalEdgeStyle;rounded=0;orthogonalLoop=1;jettySize=auto;html=1;dashed=1;exitX=0.498;exitY=0.072;exitDx=0;exitDy=0;exitPerimeter=0;" parent="wobP2IaSqv85BQ5EtLf1-1" source="wobP2IaSqv85BQ5EtLf1-27" target="wobP2IaSqv85BQ5EtLf1-2" edge="1">
          <mxGeometry relative="1" as="geometry" />
        </mxCell>
        <mxCell id="wobP2IaSqv85BQ5EtLf1-27" value="&lt;div style=&quot;direction: rtl;&quot;&gt;&lt;span style=&quot;background-color: initial;&quot;&gt;Comment Package&lt;/span&gt;&lt;/div&gt;" style="shape=folder;fontStyle=1;tabWidth=110;tabHeight=30;tabPosition=left;html=1;boundedLbl=1;labelInHeader=1;container=1;collapsible=0;whiteSpace=wrap;fillColor=#f5f5f5;fontColor=#333333;strokeColor=#666666;" parent="wobP2IaSqv85BQ5EtLf1-1" vertex="1">
          <mxGeometry x="165" y="620" width="470" height="320" as="geometry" />
        </mxCell>
        <mxCell id="wobP2IaSqv85BQ5EtLf1-28" value="" style="html=1;strokeColor=none;resizeWidth=1;resizeHeight=1;fillColor=none;part=1;connectable=0;allowArrows=0;deletable=0;whiteSpace=wrap;" parent="wobP2IaSqv85BQ5EtLf1-27" vertex="1">
          <mxGeometry width="469.9999999999999" height="224.00000000000003" relative="1" as="geometry">
            <mxPoint y="30" as="offset" />
          </mxGeometry>
        </mxCell>
        <mxCell id="wobP2IaSqv85BQ5EtLf1-29" value="Management" style="swimlane;fontStyle=0;childLayout=stackLayout;horizontal=1;startSize=26;horizontalStack=0;resizeParent=1;resizeParentMax=0;resizeLast=0;collapsible=1;marginBottom=0;whiteSpace=wrap;html=1;" parent="wobP2IaSqv85BQ5EtLf1-27" vertex="1">
          <mxGeometry x="21.04" y="64" width="120" height="80" as="geometry" />
        </mxCell>
        <mxCell id="wobP2IaSqv85BQ5EtLf1-30" value="- reject_or_approve&amp;nbsp;" style="text;strokeColor=none;fillColor=none;align=left;verticalAlign=top;spacingLeft=4;spacingRight=4;overflow=hidden;rotatable=0;points=[[0,0.5],[1,0.5]];portConstraint=eastwest;whiteSpace=wrap;html=1;" parent="wobP2IaSqv85BQ5EtLf1-29" vertex="1">
          <mxGeometry y="26" width="120" height="54" as="geometry" />
        </mxCell>
        <mxCell id="wobP2IaSqv85BQ5EtLf1-31" value="Reporting" style="swimlane;fontStyle=0;childLayout=stackLayout;horizontal=1;startSize=26;horizontalStack=0;resizeParent=1;resizeParentMax=0;resizeLast=0;collapsible=1;marginBottom=0;whiteSpace=wrap;html=1;" parent="wobP2IaSqv85BQ5EtLf1-27" vertex="1">
          <mxGeometry x="175" y="65.6" width="98.21" height="90" as="geometry" />
        </mxCell>
        <mxCell id="wobP2IaSqv85BQ5EtLf1-32" value="- status" style="text;strokeColor=none;fillColor=none;align=left;verticalAlign=top;spacingLeft=4;spacingRight=4;overflow=hidden;rotatable=0;points=[[0,0.5],[1,0.5]];portConstraint=eastwest;whiteSpace=wrap;html=1;" parent="wobP2IaSqv85BQ5EtLf1-31" vertex="1">
          <mxGeometry y="26" width="98.21" height="20.800000000000004" as="geometry" />
        </mxCell>
        <mxCell id="wobP2IaSqv85BQ5EtLf1-33" value="- reason [if rejected]" style="text;strokeColor=none;fillColor=none;align=left;verticalAlign=top;spacingLeft=4;spacingRight=4;overflow=hidden;rotatable=0;points=[[0,0.5],[1,0.5]];portConstraint=eastwest;whiteSpace=wrap;html=1;" parent="wobP2IaSqv85BQ5EtLf1-31" vertex="1">
          <mxGeometry y="46.800000000000004" width="98.21" height="43.2" as="geometry" />
        </mxCell>
        <mxCell id="wobP2IaSqv85BQ5EtLf1-34" value="comment" style="swimlane;fontStyle=0;childLayout=stackLayout;horizontal=1;startSize=26;horizontalStack=0;resizeParent=1;resizeParentMax=0;resizeLast=0;collapsible=1;marginBottom=0;whiteSpace=wrap;html=1;" parent="wobP2IaSqv85BQ5EtLf1-27" vertex="1">
          <mxGeometry x="315.00238805970145" y="65.6" width="98.21" height="110" as="geometry" />
        </mxCell>
        <mxCell id="wobP2IaSqv85BQ5EtLf1-35" value="- text" style="text;strokeColor=none;fillColor=none;align=left;verticalAlign=top;spacingLeft=4;spacingRight=4;overflow=hidden;rotatable=0;points=[[0,0.5],[1,0.5]];portConstraint=eastwest;whiteSpace=wrap;html=1;" parent="wobP2IaSqv85BQ5EtLf1-34" vertex="1">
          <mxGeometry y="26" width="98.21" height="20.8" as="geometry" />
        </mxCell>
        <mxCell id="wobP2IaSqv85BQ5EtLf1-36" value="- rating" style="text;strokeColor=none;fillColor=none;align=left;verticalAlign=top;spacingLeft=4;spacingRight=4;overflow=hidden;rotatable=0;points=[[0,0.5],[1,0.5]];portConstraint=eastwest;whiteSpace=wrap;html=1;" parent="wobP2IaSqv85BQ5EtLf1-34" vertex="1">
          <mxGeometry y="46.8" width="98.21" height="20.8" as="geometry" />
        </mxCell>
        <mxCell id="wobP2IaSqv85BQ5EtLf1-37" value="- date" style="text;strokeColor=none;fillColor=none;align=left;verticalAlign=top;spacingLeft=4;spacingRight=4;overflow=hidden;rotatable=0;points=[[0,0.5],[1,0.5]];portConstraint=eastwest;whiteSpace=wrap;html=1;" parent="wobP2IaSqv85BQ5EtLf1-34" vertex="1">
          <mxGeometry y="67.6" width="98.21" height="42.4" as="geometry" />
        </mxCell>
        <mxCell id="wobP2IaSqv85BQ5EtLf1-38" style="edgeStyle=orthogonalEdgeStyle;rounded=0;orthogonalLoop=1;jettySize=auto;html=1;dashed=1;" parent="wobP2IaSqv85BQ5EtLf1-1" source="wobP2IaSqv85BQ5EtLf1-39" target="wobP2IaSqv85BQ5EtLf1-2" edge="1">
          <mxGeometry relative="1" as="geometry">
            <Array as="points">
              <mxPoint x="881" y="260" />
              <mxPoint x="881" y="260" />
            </Array>
          </mxGeometry>
        </mxCell>
        <mxCell id="wobP2IaSqv85BQ5EtLf1-39" value="Order Package" style="shape=folder;fontStyle=1;tabWidth=110;tabHeight=30;tabPosition=left;html=1;boundedLbl=1;labelInHeader=1;container=1;collapsible=0;whiteSpace=wrap;fillColor=#f5f5f5;fontColor=#333333;strokeColor=#666666;" parent="wobP2IaSqv85BQ5EtLf1-1" vertex="1">
          <mxGeometry x="961" y="110" width="670" height="380" as="geometry" />
        </mxCell>
        <mxCell id="wobP2IaSqv85BQ5EtLf1-40" value="" style="html=1;strokeColor=none;resizeWidth=1;resizeHeight=1;fillColor=none;part=1;connectable=0;allowArrows=0;deletable=0;whiteSpace=wrap;" parent="wobP2IaSqv85BQ5EtLf1-39" vertex="1">
          <mxGeometry width="357.33333333333337" height="114" relative="1" as="geometry">
            <mxPoint y="30" as="offset" />
          </mxGeometry>
        </mxCell>
        <mxCell id="wobP2IaSqv85BQ5EtLf1-41" value="Notification" style="swimlane;fontStyle=0;childLayout=stackLayout;horizontal=1;startSize=26;horizontalStack=0;resizeParent=1;resizeParentMax=0;resizeLast=0;collapsible=1;marginBottom=0;whiteSpace=wrap;html=1;" parent="wobP2IaSqv85BQ5EtLf1-39" vertex="1">
          <mxGeometry x="276.0039130434782" y="110.00000000000003" width="118.69565217391305" height="78" as="geometry">
            <mxRectangle x="276.0039130434782" y="110.00000000000003" width="100" height="30" as="alternateBounds" />
          </mxGeometry>
        </mxCell>
        <mxCell id="wobP2IaSqv85BQ5EtLf1-42" value="- displayresult" style="text;strokeColor=none;fillColor=none;align=left;verticalAlign=top;spacingLeft=4;spacingRight=4;overflow=hidden;rotatable=0;points=[[0,0.5],[1,0.5]];portConstraint=eastwest;whiteSpace=wrap;html=1;" parent="wobP2IaSqv85BQ5EtLf1-41" vertex="1">
          <mxGeometry y="26" width="118.69565217391305" height="26" as="geometry" />
        </mxCell>
        <mxCell id="wobP2IaSqv85BQ5EtLf1-43" value="- sendEmail" style="text;strokeColor=none;fillColor=none;align=left;verticalAlign=top;spacingLeft=4;spacingRight=4;overflow=hidden;rotatable=0;points=[[0,0.5],[1,0.5]];portConstraint=eastwest;whiteSpace=wrap;html=1;" parent="wobP2IaSqv85BQ5EtLf1-41" vertex="1">
          <mxGeometry y="52" width="118.69565217391305" height="26" as="geometry" />
        </mxCell>
        <mxCell id="wobP2IaSqv85BQ5EtLf1-44" value="Order" style="swimlane;fontStyle=0;childLayout=stackLayout;horizontal=1;startSize=26;horizontalStack=0;resizeParent=1;resizeParentMax=0;resizeLast=0;collapsible=1;marginBottom=0;whiteSpace=wrap;html=1;" parent="wobP2IaSqv85BQ5EtLf1-39" vertex="1">
          <mxGeometry x="469.0039130434782" y="110.00000000000003" width="118.69565217391305" height="130" as="geometry">
            <mxRectangle x="469.0039130434782" y="110.00000000000003" width="90" height="30" as="alternateBounds" />
          </mxGeometry>
        </mxCell>
        <mxCell id="wobP2IaSqv85BQ5EtLf1-45" value="- id" style="text;strokeColor=none;fillColor=none;align=left;verticalAlign=top;spacingLeft=4;spacingRight=4;overflow=hidden;rotatable=0;points=[[0,0.5],[1,0.5]];portConstraint=eastwest;whiteSpace=wrap;html=1;" parent="wobP2IaSqv85BQ5EtLf1-44" vertex="1">
          <mxGeometry y="26" width="118.69565217391305" height="26" as="geometry" />
        </mxCell>
        <mxCell id="wobP2IaSqv85BQ5EtLf1-46" value="- status" style="text;strokeColor=none;fillColor=none;align=left;verticalAlign=top;spacingLeft=4;spacingRight=4;overflow=hidden;rotatable=0;points=[[0,0.5],[1,0.5]];portConstraint=eastwest;whiteSpace=wrap;html=1;" parent="wobP2IaSqv85BQ5EtLf1-44" vertex="1">
          <mxGeometry y="52" width="118.69565217391305" height="26" as="geometry" />
        </mxCell>
        <mxCell id="wobP2IaSqv85BQ5EtLf1-47" value="- date" style="text;strokeColor=none;fillColor=none;align=left;verticalAlign=top;spacingLeft=4;spacingRight=4;overflow=hidden;rotatable=0;points=[[0,0.5],[1,0.5]];portConstraint=eastwest;whiteSpace=wrap;html=1;" parent="wobP2IaSqv85BQ5EtLf1-44" vertex="1">
          <mxGeometry y="78" width="118.69565217391305" height="26" as="geometry" />
        </mxCell>
        <mxCell id="wobP2IaSqv85BQ5EtLf1-48" value="- count" style="text;strokeColor=none;fillColor=none;align=left;verticalAlign=top;spacingLeft=4;spacingRight=4;overflow=hidden;rotatable=0;points=[[0,0.5],[1,0.5]];portConstraint=eastwest;whiteSpace=wrap;html=1;" parent="wobP2IaSqv85BQ5EtLf1-44" vertex="1">
          <mxGeometry y="104" width="118.69565217391305" height="26" as="geometry" />
        </mxCell>
        <mxCell id="wobP2IaSqv85BQ5EtLf1-49" value="Management" style="swimlane;fontStyle=0;childLayout=stackLayout;horizontal=1;startSize=26;horizontalStack=0;resizeParent=1;resizeParentMax=0;resizeLast=0;collapsible=1;marginBottom=0;whiteSpace=wrap;html=1;" parent="wobP2IaSqv85BQ5EtLf1-39" vertex="1">
          <mxGeometry x="29" y="106" width="212.69" height="52" as="geometry" />
        </mxCell>
        <mxCell id="wobP2IaSqv85BQ5EtLf1-50" value="- log" style="text;strokeColor=none;fillColor=none;align=left;verticalAlign=top;spacingLeft=4;spacingRight=4;overflow=hidden;rotatable=0;points=[[0,0.5],[1,0.5]];portConstraint=eastwest;whiteSpace=wrap;html=1;" parent="wobP2IaSqv85BQ5EtLf1-49" vertex="1">
          <mxGeometry y="26" width="212.69" height="26" as="geometry" />
        </mxCell>
        <mxCell id="wobP2IaSqv85BQ5EtLf1-51" value="User Package" style="shape=folder;fontStyle=1;tabWidth=110;tabHeight=30;tabPosition=left;html=1;boundedLbl=1;labelInHeader=1;container=1;collapsible=0;whiteSpace=wrap;fillColor=#f5f5f5;fontColor=#333333;strokeColor=#666666;" parent="wobP2IaSqv85BQ5EtLf1-1" vertex="1">
          <mxGeometry x="1910" y="330" width="620" height="360" as="geometry" />
        </mxCell>
        <mxCell id="wobP2IaSqv85BQ5EtLf1-52" value="" style="html=1;strokeColor=none;resizeWidth=1;resizeHeight=1;fillColor=none;part=1;connectable=0;allowArrows=0;deletable=0;whiteSpace=wrap;" parent="wobP2IaSqv85BQ5EtLf1-51" vertex="1">
          <mxGeometry width="620" height="252" relative="1" as="geometry">
            <mxPoint y="30" as="offset" />
          </mxGeometry>
        </mxCell>
        <mxCell id="wobP2IaSqv85BQ5EtLf1-53" value="CostumerLogic" style="swimlane;fontStyle=0;childLayout=stackLayout;horizontal=1;startSize=26;horizontalStack=0;resizeParent=1;resizeParentMax=0;resizeLast=0;collapsible=1;marginBottom=0;whiteSpace=wrap;html=1;" parent="wobP2IaSqv85BQ5EtLf1-51" vertex="1">
          <mxGeometry x="33.513513513513516" y="57" width="175.94594594594594" height="208" as="geometry" />
        </mxCell>
        <mxCell id="wobP2IaSqv85BQ5EtLf1-54" value="- username: string" style="text;strokeColor=none;fillColor=none;align=left;verticalAlign=top;spacingLeft=4;spacingRight=4;overflow=hidden;rotatable=0;points=[[0,0.5],[1,0.5]];portConstraint=eastwest;whiteSpace=wrap;html=1;" parent="wobP2IaSqv85BQ5EtLf1-53" vertex="1">
          <mxGeometry y="26" width="175.94594594594594" height="26" as="geometry" />
        </mxCell>
        <mxCell id="wobP2IaSqv85BQ5EtLf1-55" value="- email: string" style="text;strokeColor=none;fillColor=none;align=left;verticalAlign=top;spacingLeft=4;spacingRight=4;overflow=hidden;rotatable=0;points=[[0,0.5],[1,0.5]];portConstraint=eastwest;whiteSpace=wrap;html=1;" parent="wobP2IaSqv85BQ5EtLf1-53" vertex="1">
          <mxGeometry y="52" width="175.94594594594594" height="26" as="geometry" />
        </mxCell>
        <mxCell id="wobP2IaSqv85BQ5EtLf1-56" value="- password: string" style="text;strokeColor=none;fillColor=none;align=left;verticalAlign=top;spacingLeft=4;spacingRight=4;overflow=hidden;rotatable=0;points=[[0,0.5],[1,0.5]];portConstraint=eastwest;whiteSpace=wrap;html=1;" parent="wobP2IaSqv85BQ5EtLf1-53" vertex="1">
          <mxGeometry y="78" width="175.94594594594594" height="26" as="geometry" />
        </mxCell>
        <mxCell id="wobP2IaSqv85BQ5EtLf1-57" value="- first_name: string" style="text;strokeColor=none;fillColor=none;align=left;verticalAlign=top;spacingLeft=4;spacingRight=4;overflow=hidden;rotatable=0;points=[[0,0.5],[1,0.5]];portConstraint=eastwest;whiteSpace=wrap;html=1;" parent="wobP2IaSqv85BQ5EtLf1-53" vertex="1">
          <mxGeometry y="104" width="175.94594594594594" height="26" as="geometry" />
        </mxCell>
        <mxCell id="wobP2IaSqv85BQ5EtLf1-58" value="- last_name: string" style="text;strokeColor=none;fillColor=none;align=left;verticalAlign=top;spacingLeft=4;spacingRight=4;overflow=hidden;rotatable=0;points=[[0,0.5],[1,0.5]];portConstraint=eastwest;whiteSpace=wrap;html=1;" parent="wobP2IaSqv85BQ5EtLf1-53" vertex="1">
          <mxGeometry y="130" width="175.94594594594594" height="26" as="geometry" />
        </mxCell>
        <mxCell id="wobP2IaSqv85BQ5EtLf1-59" value="- address: string" style="text;strokeColor=none;fillColor=none;align=left;verticalAlign=top;spacingLeft=4;spacingRight=4;overflow=hidden;rotatable=0;points=[[0,0.5],[1,0.5]];portConstraint=eastwest;whiteSpace=wrap;html=1;" parent="wobP2IaSqv85BQ5EtLf1-53" vertex="1">
          <mxGeometry y="156" width="175.94594594594594" height="26" as="geometry" />
        </mxCell>
        <mxCell id="wobP2IaSqv85BQ5EtLf1-60" value="- walletBallance: unsigned int" style="text;strokeColor=none;fillColor=none;align=left;verticalAlign=top;spacingLeft=4;spacingRight=4;overflow=hidden;rotatable=0;points=[[0,0.5],[1,0.5]];portConstraint=eastwest;whiteSpace=wrap;html=1;" parent="wobP2IaSqv85BQ5EtLf1-53" vertex="1">
          <mxGeometry y="182" width="175.94594594594594" height="26" as="geometry" />
        </mxCell>
        <mxCell id="wobP2IaSqv85BQ5EtLf1-61" value="ServiceProviderLogic" style="swimlane;fontStyle=0;childLayout=stackLayout;horizontal=1;startSize=26;horizontalStack=0;resizeParent=1;resizeParentMax=0;resizeLast=0;collapsible=1;marginBottom=0;whiteSpace=wrap;html=1;" parent="wobP2IaSqv85BQ5EtLf1-51" vertex="1">
          <mxGeometry x="234.59459459459458" y="57" width="184.32432432432432" height="182" as="geometry" />
        </mxCell>
        <mxCell id="wobP2IaSqv85BQ5EtLf1-62" value="- username: string" style="text;strokeColor=none;fillColor=none;align=left;verticalAlign=top;spacingLeft=4;spacingRight=4;overflow=hidden;rotatable=0;points=[[0,0.5],[1,0.5]];portConstraint=eastwest;whiteSpace=wrap;html=1;" parent="wobP2IaSqv85BQ5EtLf1-61" vertex="1">
          <mxGeometry y="26" width="184.32432432432432" height="26" as="geometry" />
        </mxCell>
        <mxCell id="wobP2IaSqv85BQ5EtLf1-63" value="- email: string" style="text;strokeColor=none;fillColor=none;align=left;verticalAlign=top;spacingLeft=4;spacingRight=4;overflow=hidden;rotatable=0;points=[[0,0.5],[1,0.5]];portConstraint=eastwest;whiteSpace=wrap;html=1;" parent="wobP2IaSqv85BQ5EtLf1-61" vertex="1">
          <mxGeometry y="52" width="184.32432432432432" height="26" as="geometry" />
        </mxCell>
        <mxCell id="wobP2IaSqv85BQ5EtLf1-64" value="- password: string" style="text;strokeColor=none;fillColor=none;align=left;verticalAlign=top;spacingLeft=4;spacingRight=4;overflow=hidden;rotatable=0;points=[[0,0.5],[1,0.5]];portConstraint=eastwest;whiteSpace=wrap;html=1;" parent="wobP2IaSqv85BQ5EtLf1-61" vertex="1">
          <mxGeometry y="78" width="184.32432432432432" height="26" as="geometry" />
        </mxCell>
        <mxCell id="wobP2IaSqv85BQ5EtLf1-65" value="- company_name: string" style="text;strokeColor=none;fillColor=none;align=left;verticalAlign=top;spacingLeft=4;spacingRight=4;overflow=hidden;rotatable=0;points=[[0,0.5],[1,0.5]];portConstraint=eastwest;whiteSpace=wrap;html=1;" parent="wobP2IaSqv85BQ5EtLf1-61" vertex="1">
          <mxGeometry y="104" width="184.32432432432432" height="26" as="geometry" />
        </mxCell>
        <mxCell id="wobP2IaSqv85BQ5EtLf1-66" value="- service: string" style="text;strokeColor=none;fillColor=none;align=left;verticalAlign=top;spacingLeft=4;spacingRight=4;overflow=hidden;rotatable=0;points=[[0,0.5],[1,0.5]];portConstraint=eastwest;whiteSpace=wrap;html=1;" parent="wobP2IaSqv85BQ5EtLf1-61" vertex="1">
          <mxGeometry y="130" width="184.32432432432432" height="26" as="geometry" />
        </mxCell>
        <mxCell id="wobP2IaSqv85BQ5EtLf1-67" value="- provider_code: string" style="text;strokeColor=none;fillColor=none;align=left;verticalAlign=top;spacingLeft=4;spacingRight=4;overflow=hidden;rotatable=0;points=[[0,0.5],[1,0.5]];portConstraint=eastwest;whiteSpace=wrap;html=1;" parent="wobP2IaSqv85BQ5EtLf1-61" vertex="1">
          <mxGeometry y="156" width="184.32432432432432" height="26" as="geometry" />
        </mxCell>
        <mxCell id="wobP2IaSqv85BQ5EtLf1-68" value="AdminLogic" style="swimlane;fontStyle=0;childLayout=stackLayout;horizontal=1;startSize=26;horizontalStack=0;resizeParent=1;resizeParentMax=0;resizeLast=0;collapsible=1;marginBottom=0;whiteSpace=wrap;html=1;" parent="wobP2IaSqv85BQ5EtLf1-51" vertex="1">
          <mxGeometry x="444.05405405405406" y="57" width="142.43243243243242" height="104" as="geometry" />
        </mxCell>
        <mxCell id="wobP2IaSqv85BQ5EtLf1-69" value="- password: string" style="text;strokeColor=none;fillColor=none;align=left;verticalAlign=top;spacingLeft=4;spacingRight=4;overflow=hidden;rotatable=0;points=[[0,0.5],[1,0.5]];portConstraint=eastwest;whiteSpace=wrap;html=1;" parent="wobP2IaSqv85BQ5EtLf1-68" vertex="1">
          <mxGeometry y="26" width="142.43243243243242" height="26" as="geometry" />
        </mxCell>
        <mxCell id="wobP2IaSqv85BQ5EtLf1-70" value="- email: string" style="text;strokeColor=none;fillColor=none;align=left;verticalAlign=top;spacingLeft=4;spacingRight=4;overflow=hidden;rotatable=0;points=[[0,0.5],[1,0.5]];portConstraint=eastwest;whiteSpace=wrap;html=1;" parent="wobP2IaSqv85BQ5EtLf1-68" vertex="1">
          <mxGeometry y="52" width="142.43243243243242" height="26" as="geometry" />
        </mxCell>
        <mxCell id="wobP2IaSqv85BQ5EtLf1-71" value="- username: string" style="text;strokeColor=none;fillColor=none;align=left;verticalAlign=top;spacingLeft=4;spacingRight=4;overflow=hidden;rotatable=0;points=[[0,0.5],[1,0.5]];portConstraint=eastwest;whiteSpace=wrap;html=1;" parent="wobP2IaSqv85BQ5EtLf1-68" vertex="1">
          <mxGeometry y="78" width="142.43243243243242" height="26" as="geometry" />
        </mxCell>
        <mxCell id="wobP2IaSqv85BQ5EtLf1-72" style="edgeStyle=orthogonalEdgeStyle;rounded=0;orthogonalLoop=1;jettySize=auto;html=1;dashed=1;entryX=-0.004;entryY=0.709;entryDx=0;entryDy=0;entryPerimeter=0;" parent="wobP2IaSqv85BQ5EtLf1-1" source="wobP2IaSqv85BQ5EtLf1-39" target="wobP2IaSqv85BQ5EtLf1-51" edge="1">
          <mxGeometry relative="1" as="geometry">
            <mxPoint x="1590" y="650" as="sourcePoint" />
            <mxPoint x="1570" y="500" as="targetPoint" />
          </mxGeometry>
        </mxCell>
        <mxCell id="bs7dx5y6tpF_CZ55wjF5-35" style="edgeStyle=orthogonalEdgeStyle;rounded=0;orthogonalLoop=1;jettySize=auto;html=1;entryX=0;entryY=0;entryDx=0;entryDy=195;entryPerimeter=0;exitX=0.596;exitY=0.078;exitDx=0;exitDy=0;exitPerimeter=0;dashed=1;" parent="wobP2IaSqv85BQ5EtLf1-1" source="wobP2IaSqv85BQ5EtLf1-27" target="wobP2IaSqv85BQ5EtLf1-51" edge="1">
          <mxGeometry relative="1" as="geometry">
            <Array as="points">
              <mxPoint x="520" y="631" />
              <mxPoint x="520" y="590" />
              <mxPoint x="1440" y="590" />
              <mxPoint x="1440" y="525" />
            </Array>
          </mxGeometry>
        </mxCell>
        <mxCell id="wobP2IaSqv85BQ5EtLf1-135" value="Data Layer" style="shape=folder;fontStyle=1;tabWidth=110;tabHeight=30;tabPosition=left;html=1;boundedLbl=1;labelInHeader=1;container=1;collapsible=0;recursiveResize=0;whiteSpace=wrap;" parent="1" vertex="1">
          <mxGeometry x="1250" y="2810" width="1360" height="1180" as="geometry" />
        </mxCell>
        <mxCell id="wobP2IaSqv85BQ5EtLf1-136" value="User" style="shape=folder;fontStyle=1;tabWidth=110;tabHeight=30;tabPosition=left;html=1;boundedLbl=1;labelInHeader=1;container=1;collapsible=0;whiteSpace=wrap;fillColor=#f5f5f5;fontColor=#333333;strokeColor=#666666;" parent="wobP2IaSqv85BQ5EtLf1-135" vertex="1">
          <mxGeometry x="630" y="640" width="620" height="360" as="geometry" />
        </mxCell>
        <mxCell id="wobP2IaSqv85BQ5EtLf1-137" value="" style="html=1;strokeColor=none;resizeWidth=1;resizeHeight=1;fillColor=none;part=1;connectable=0;allowArrows=0;deletable=0;whiteSpace=wrap;" parent="wobP2IaSqv85BQ5EtLf1-136" vertex="1">
          <mxGeometry width="620" height="252" relative="1" as="geometry">
            <mxPoint y="30" as="offset" />
          </mxGeometry>
        </mxCell>
        <mxCell id="wobP2IaSqv85BQ5EtLf1-138" value="Costumer" style="swimlane;fontStyle=0;childLayout=stackLayout;horizontal=1;startSize=26;horizontalStack=0;resizeParent=1;resizeParentMax=0;resizeLast=0;collapsible=1;marginBottom=0;whiteSpace=wrap;html=1;" parent="wobP2IaSqv85BQ5EtLf1-136" vertex="1">
          <mxGeometry x="33.513513513513516" y="57" width="175.94594594594594" height="234" as="geometry" />
        </mxCell>
        <mxCell id="wobP2IaSqv85BQ5EtLf1-139" value="- id: int" style="text;strokeColor=none;fillColor=none;align=left;verticalAlign=top;spacingLeft=4;spacingRight=4;overflow=hidden;rotatable=0;points=[[0,0.5],[1,0.5]];portConstraint=eastwest;whiteSpace=wrap;html=1;" parent="wobP2IaSqv85BQ5EtLf1-138" vertex="1">
          <mxGeometry y="26" width="175.94594594594594" height="26" as="geometry" />
        </mxCell>
        <mxCell id="wobP2IaSqv85BQ5EtLf1-140" value="- username: string" style="text;strokeColor=none;fillColor=none;align=left;verticalAlign=top;spacingLeft=4;spacingRight=4;overflow=hidden;rotatable=0;points=[[0,0.5],[1,0.5]];portConstraint=eastwest;whiteSpace=wrap;html=1;" parent="wobP2IaSqv85BQ5EtLf1-138" vertex="1">
          <mxGeometry y="52" width="175.94594594594594" height="26" as="geometry" />
        </mxCell>
        <mxCell id="wobP2IaSqv85BQ5EtLf1-141" value="- email: string" style="text;strokeColor=none;fillColor=none;align=left;verticalAlign=top;spacingLeft=4;spacingRight=4;overflow=hidden;rotatable=0;points=[[0,0.5],[1,0.5]];portConstraint=eastwest;whiteSpace=wrap;html=1;" parent="wobP2IaSqv85BQ5EtLf1-138" vertex="1">
          <mxGeometry y="78" width="175.94594594594594" height="26" as="geometry" />
        </mxCell>
        <mxCell id="wobP2IaSqv85BQ5EtLf1-142" value="- password: string" style="text;strokeColor=none;fillColor=none;align=left;verticalAlign=top;spacingLeft=4;spacingRight=4;overflow=hidden;rotatable=0;points=[[0,0.5],[1,0.5]];portConstraint=eastwest;whiteSpace=wrap;html=1;" parent="wobP2IaSqv85BQ5EtLf1-138" vertex="1">
          <mxGeometry y="104" width="175.94594594594594" height="26" as="geometry" />
        </mxCell>
        <mxCell id="wobP2IaSqv85BQ5EtLf1-143" value="- first_name: string" style="text;strokeColor=none;fillColor=none;align=left;verticalAlign=top;spacingLeft=4;spacingRight=4;overflow=hidden;rotatable=0;points=[[0,0.5],[1,0.5]];portConstraint=eastwest;whiteSpace=wrap;html=1;" parent="wobP2IaSqv85BQ5EtLf1-138" vertex="1">
          <mxGeometry y="130" width="175.94594594594594" height="26" as="geometry" />
        </mxCell>
        <mxCell id="wobP2IaSqv85BQ5EtLf1-144" value="- last_name: string" style="text;strokeColor=none;fillColor=none;align=left;verticalAlign=top;spacingLeft=4;spacingRight=4;overflow=hidden;rotatable=0;points=[[0,0.5],[1,0.5]];portConstraint=eastwest;whiteSpace=wrap;html=1;" parent="wobP2IaSqv85BQ5EtLf1-138" vertex="1">
          <mxGeometry y="156" width="175.94594594594594" height="26" as="geometry" />
        </mxCell>
        <mxCell id="wobP2IaSqv85BQ5EtLf1-145" value="- address: string" style="text;strokeColor=none;fillColor=none;align=left;verticalAlign=top;spacingLeft=4;spacingRight=4;overflow=hidden;rotatable=0;points=[[0,0.5],[1,0.5]];portConstraint=eastwest;whiteSpace=wrap;html=1;" parent="wobP2IaSqv85BQ5EtLf1-138" vertex="1">
          <mxGeometry y="182" width="175.94594594594594" height="26" as="geometry" />
        </mxCell>
        <mxCell id="wobP2IaSqv85BQ5EtLf1-146" value="- walletBallance: unsigned int" style="text;strokeColor=none;fillColor=none;align=left;verticalAlign=top;spacingLeft=4;spacingRight=4;overflow=hidden;rotatable=0;points=[[0,0.5],[1,0.5]];portConstraint=eastwest;whiteSpace=wrap;html=1;" parent="wobP2IaSqv85BQ5EtLf1-138" vertex="1">
          <mxGeometry y="208" width="175.94594594594594" height="26" as="geometry" />
        </mxCell>
        <mxCell id="wobP2IaSqv85BQ5EtLf1-147" value="ServiceProvider" style="swimlane;fontStyle=0;childLayout=stackLayout;horizontal=1;startSize=26;horizontalStack=0;resizeParent=1;resizeParentMax=0;resizeLast=0;collapsible=1;marginBottom=0;whiteSpace=wrap;html=1;" parent="wobP2IaSqv85BQ5EtLf1-136" vertex="1">
          <mxGeometry x="234.59459459459458" y="57" width="184.32432432432432" height="182" as="geometry" />
        </mxCell>
        <mxCell id="wobP2IaSqv85BQ5EtLf1-148" value="- id: int" style="text;strokeColor=none;fillColor=none;align=left;verticalAlign=top;spacingLeft=4;spacingRight=4;overflow=hidden;rotatable=0;points=[[0,0.5],[1,0.5]];portConstraint=eastwest;whiteSpace=wrap;html=1;" parent="wobP2IaSqv85BQ5EtLf1-147" vertex="1">
          <mxGeometry y="26" width="184.32432432432432" height="26" as="geometry" />
        </mxCell>
        <mxCell id="wobP2IaSqv85BQ5EtLf1-149" value="- username: string" style="text;strokeColor=none;fillColor=none;align=left;verticalAlign=top;spacingLeft=4;spacingRight=4;overflow=hidden;rotatable=0;points=[[0,0.5],[1,0.5]];portConstraint=eastwest;whiteSpace=wrap;html=1;" parent="wobP2IaSqv85BQ5EtLf1-147" vertex="1">
          <mxGeometry y="52" width="184.32432432432432" height="26" as="geometry" />
        </mxCell>
        <mxCell id="wobP2IaSqv85BQ5EtLf1-150" value="- email: string" style="text;strokeColor=none;fillColor=none;align=left;verticalAlign=top;spacingLeft=4;spacingRight=4;overflow=hidden;rotatable=0;points=[[0,0.5],[1,0.5]];portConstraint=eastwest;whiteSpace=wrap;html=1;" parent="wobP2IaSqv85BQ5EtLf1-147" vertex="1">
          <mxGeometry y="78" width="184.32432432432432" height="26" as="geometry" />
        </mxCell>
        <mxCell id="wobP2IaSqv85BQ5EtLf1-151" value="- password: string" style="text;strokeColor=none;fillColor=none;align=left;verticalAlign=top;spacingLeft=4;spacingRight=4;overflow=hidden;rotatable=0;points=[[0,0.5],[1,0.5]];portConstraint=eastwest;whiteSpace=wrap;html=1;" parent="wobP2IaSqv85BQ5EtLf1-147" vertex="1">
          <mxGeometry y="104" width="184.32432432432432" height="26" as="geometry" />
        </mxCell>
        <mxCell id="wobP2IaSqv85BQ5EtLf1-152" value="- service: string" style="text;strokeColor=none;fillColor=none;align=left;verticalAlign=top;spacingLeft=4;spacingRight=4;overflow=hidden;rotatable=0;points=[[0,0.5],[1,0.5]];portConstraint=eastwest;whiteSpace=wrap;html=1;" parent="wobP2IaSqv85BQ5EtLf1-147" vertex="1">
          <mxGeometry y="130" width="184.32432432432432" height="26" as="geometry" />
        </mxCell>
        <mxCell id="wobP2IaSqv85BQ5EtLf1-153" value="- provider_code: string" style="text;strokeColor=none;fillColor=none;align=left;verticalAlign=top;spacingLeft=4;spacingRight=4;overflow=hidden;rotatable=0;points=[[0,0.5],[1,0.5]];portConstraint=eastwest;whiteSpace=wrap;html=1;" parent="wobP2IaSqv85BQ5EtLf1-147" vertex="1">
          <mxGeometry y="156" width="184.32432432432432" height="26" as="geometry" />
        </mxCell>
        <mxCell id="wobP2IaSqv85BQ5EtLf1-154" value="Admin" style="swimlane;fontStyle=0;childLayout=stackLayout;horizontal=1;startSize=26;horizontalStack=0;resizeParent=1;resizeParentMax=0;resizeLast=0;collapsible=1;marginBottom=0;whiteSpace=wrap;html=1;" parent="wobP2IaSqv85BQ5EtLf1-136" vertex="1">
          <mxGeometry x="444.05405405405406" y="57" width="142.43243243243242" height="130" as="geometry" />
        </mxCell>
        <mxCell id="wobP2IaSqv85BQ5EtLf1-155" value="- id: int" style="text;strokeColor=none;fillColor=none;align=left;verticalAlign=top;spacingLeft=4;spacingRight=4;overflow=hidden;rotatable=0;points=[[0,0.5],[1,0.5]];portConstraint=eastwest;whiteSpace=wrap;html=1;" parent="wobP2IaSqv85BQ5EtLf1-154" vertex="1">
          <mxGeometry y="26" width="142.43243243243242" height="26" as="geometry" />
        </mxCell>
        <mxCell id="wobP2IaSqv85BQ5EtLf1-156" value="- password: string" style="text;strokeColor=none;fillColor=none;align=left;verticalAlign=top;spacingLeft=4;spacingRight=4;overflow=hidden;rotatable=0;points=[[0,0.5],[1,0.5]];portConstraint=eastwest;whiteSpace=wrap;html=1;" parent="wobP2IaSqv85BQ5EtLf1-154" vertex="1">
          <mxGeometry y="52" width="142.43243243243242" height="26" as="geometry" />
        </mxCell>
        <mxCell id="wobP2IaSqv85BQ5EtLf1-157" value="- email: string" style="text;strokeColor=none;fillColor=none;align=left;verticalAlign=top;spacingLeft=4;spacingRight=4;overflow=hidden;rotatable=0;points=[[0,0.5],[1,0.5]];portConstraint=eastwest;whiteSpace=wrap;html=1;" parent="wobP2IaSqv85BQ5EtLf1-154" vertex="1">
          <mxGeometry y="78" width="142.43243243243242" height="26" as="geometry" />
        </mxCell>
        <mxCell id="wobP2IaSqv85BQ5EtLf1-158" value="- username: string" style="text;strokeColor=none;fillColor=none;align=left;verticalAlign=top;spacingLeft=4;spacingRight=4;overflow=hidden;rotatable=0;points=[[0,0.5],[1,0.5]];portConstraint=eastwest;whiteSpace=wrap;html=1;" parent="wobP2IaSqv85BQ5EtLf1-154" vertex="1">
          <mxGeometry y="104" width="142.43243243243242" height="26" as="geometry" />
        </mxCell>
        <mxCell id="wobP2IaSqv85BQ5EtLf1-159" value="" style="shape=folder;fontStyle=1;tabWidth=120;tabHeight=30;tabPosition=left;html=1;boundedLbl=1;whiteSpace=wrap;fillColor=#f5f5f5;fontColor=#333333;strokeColor=#666666;" parent="wobP2IaSqv85BQ5EtLf1-135" vertex="1">
          <mxGeometry x="90" y="124" width="830" height="420" as="geometry" />
        </mxCell>
        <mxCell id="wobP2IaSqv85BQ5EtLf1-160" value="Order Package" style="text;html=1;align=center;verticalAlign=middle;resizable=0;points=[];autosize=1;strokeColor=none;fillColor=none;" parent="wobP2IaSqv85BQ5EtLf1-135" vertex="1">
          <mxGeometry x="100" y="124" width="100" height="30" as="geometry" />
        </mxCell>
        <mxCell id="wobP2IaSqv85BQ5EtLf1-161" value="Comment Package&amp;nbsp;" style="shape=folder;fontStyle=1;tabWidth=150;tabHeight=30;tabPosition=left;html=1;boundedLbl=1;labelInHeader=1;container=1;collapsible=0;recursiveResize=0;whiteSpace=wrap;fillColor=#f5f5f5;fontColor=#333333;strokeColor=#666666;" parent="wobP2IaSqv85BQ5EtLf1-135" vertex="1">
          <mxGeometry x="100" y="610" width="400" height="410" as="geometry" />
        </mxCell>
        <mxCell id="wobP2IaSqv85BQ5EtLf1-162" value="comment&amp;nbsp;" style="swimlane;fontStyle=0;childLayout=stackLayout;horizontal=1;startSize=26;horizontalStack=0;resizeParent=1;resizeParentMax=0;resizeLast=0;collapsible=1;marginBottom=0;whiteSpace=wrap;html=1;" parent="wobP2IaSqv85BQ5EtLf1-161" vertex="1">
          <mxGeometry x="100" y="80" width="180" height="182" as="geometry" />
        </mxCell>
        <mxCell id="wobP2IaSqv85BQ5EtLf1-163" value="-id : int" style="text;strokeColor=none;fillColor=none;align=left;verticalAlign=top;spacingLeft=4;spacingRight=4;overflow=hidden;rotatable=0;points=[[0,0.5],[1,0.5]];portConstraint=eastwest;whiteSpace=wrap;html=1;" parent="wobP2IaSqv85BQ5EtLf1-162" vertex="1">
          <mxGeometry y="26" width="180" height="26" as="geometry" />
        </mxCell>
        <mxCell id="wobP2IaSqv85BQ5EtLf1-164" value="-text : string&amp;nbsp;" style="text;strokeColor=none;fillColor=none;align=left;verticalAlign=top;spacingLeft=4;spacingRight=4;overflow=hidden;rotatable=0;points=[[0,0.5],[1,0.5]];portConstraint=eastwest;whiteSpace=wrap;html=1;" parent="wobP2IaSqv85BQ5EtLf1-162" vertex="1">
          <mxGeometry y="52" width="180" height="26" as="geometry" />
        </mxCell>
        <mxCell id="wobP2IaSqv85BQ5EtLf1-165" value="-date : date&amp;nbsp;" style="text;strokeColor=none;fillColor=none;align=left;verticalAlign=top;spacingLeft=4;spacingRight=4;overflow=hidden;rotatable=0;points=[[0,0.5],[1,0.5]];portConstraint=eastwest;whiteSpace=wrap;html=1;" parent="wobP2IaSqv85BQ5EtLf1-162" vertex="1">
          <mxGeometry y="78" width="180" height="26" as="geometry" />
        </mxCell>
        <mxCell id="wobP2IaSqv85BQ5EtLf1-166" value="-rarting : int&amp;nbsp;" style="text;strokeColor=none;fillColor=none;align=left;verticalAlign=top;spacingLeft=4;spacingRight=4;overflow=hidden;rotatable=0;points=[[0,0.5],[1,0.5]];portConstraint=eastwest;whiteSpace=wrap;html=1;" parent="wobP2IaSqv85BQ5EtLf1-162" vertex="1">
          <mxGeometry y="104" width="180" height="26" as="geometry" />
        </mxCell>
        <mxCell id="wobP2IaSqv85BQ5EtLf1-167" value="-customer_id&amp;nbsp; : int&amp;nbsp;" style="text;strokeColor=none;fillColor=none;align=left;verticalAlign=top;spacingLeft=4;spacingRight=4;overflow=hidden;rotatable=0;points=[[0,0.5],[1,0.5]];portConstraint=eastwest;whiteSpace=wrap;html=1;" parent="wobP2IaSqv85BQ5EtLf1-162" vertex="1">
          <mxGeometry y="130" width="180" height="26" as="geometry" />
        </mxCell>
        <mxCell id="wobP2IaSqv85BQ5EtLf1-168" value="-ServiceProvider_id&amp;nbsp; : int&amp;nbsp;" style="text;strokeColor=none;fillColor=none;align=left;verticalAlign=top;spacingLeft=4;spacingRight=4;overflow=hidden;rotatable=0;points=[[0,0.5],[1,0.5]];portConstraint=eastwest;whiteSpace=wrap;html=1;" parent="wobP2IaSqv85BQ5EtLf1-162" vertex="1">
          <mxGeometry y="156" width="180" height="26" as="geometry" />
        </mxCell>
        <mxCell id="wobP2IaSqv85BQ5EtLf1-169" value="Order" style="swimlane;fontStyle=0;childLayout=stackLayout;horizontal=1;startSize=26;horizontalStack=0;resizeParent=1;resizeParentMax=0;resizeLast=0;collapsible=1;marginBottom=0;whiteSpace=wrap;html=1;" parent="wobP2IaSqv85BQ5EtLf1-135" vertex="1">
          <mxGeometry x="570" y="210" width="288.4" height="182" as="geometry" />
        </mxCell>
        <mxCell id="wobP2IaSqv85BQ5EtLf1-170" value="- id: int" style="text;strokeColor=none;fillColor=none;align=left;verticalAlign=top;spacingLeft=4;spacingRight=4;overflow=hidden;rotatable=0;points=[[0,0.5],[1,0.5]];portConstraint=eastwest;whiteSpace=wrap;html=1;" parent="wobP2IaSqv85BQ5EtLf1-169" vertex="1">
          <mxGeometry y="26" width="288.4" height="26" as="geometry" />
        </mxCell>
        <mxCell id="wobP2IaSqv85BQ5EtLf1-171" value="- serviceID: int" style="text;strokeColor=none;fillColor=none;align=left;verticalAlign=top;spacingLeft=4;spacingRight=4;overflow=hidden;rotatable=0;points=[[0,0.5],[1,0.5]];portConstraint=eastwest;whiteSpace=wrap;html=1;" parent="wobP2IaSqv85BQ5EtLf1-169" vertex="1">
          <mxGeometry y="52" width="288.4" height="26" as="geometry" />
        </mxCell>
        <mxCell id="wobP2IaSqv85BQ5EtLf1-172" value="- custumerID: int" style="text;strokeColor=none;fillColor=none;align=left;verticalAlign=top;spacingLeft=4;spacingRight=4;overflow=hidden;rotatable=0;points=[[0,0.5],[1,0.5]];portConstraint=eastwest;whiteSpace=wrap;html=1;" parent="wobP2IaSqv85BQ5EtLf1-169" vertex="1">
          <mxGeometry y="78" width="288.4" height="26" as="geometry" />
        </mxCell>
        <mxCell id="wobP2IaSqv85BQ5EtLf1-173" value="- status: string(pending, confirm or cancel)" style="text;strokeColor=none;fillColor=none;align=left;verticalAlign=top;spacingLeft=4;spacingRight=4;overflow=hidden;rotatable=0;points=[[0,0.5],[1,0.5]];portConstraint=eastwest;whiteSpace=wrap;html=1;" parent="wobP2IaSqv85BQ5EtLf1-169" vertex="1">
          <mxGeometry y="104" width="288.4" height="26" as="geometry" />
        </mxCell>
        <mxCell id="wobP2IaSqv85BQ5EtLf1-174" value="- date: date" style="text;strokeColor=none;fillColor=none;align=left;verticalAlign=top;spacingLeft=4;spacingRight=4;overflow=hidden;rotatable=0;points=[[0,0.5],[1,0.5]];portConstraint=eastwest;whiteSpace=wrap;html=1;" parent="wobP2IaSqv85BQ5EtLf1-169" vertex="1">
          <mxGeometry y="130" width="288.4" height="26" as="geometry" />
        </mxCell>
        <mxCell id="wobP2IaSqv85BQ5EtLf1-175" value="- count: int" style="text;strokeColor=none;fillColor=none;align=left;verticalAlign=top;spacingLeft=4;spacingRight=4;overflow=hidden;rotatable=0;points=[[0,0.5],[1,0.5]];portConstraint=eastwest;whiteSpace=wrap;html=1;" parent="wobP2IaSqv85BQ5EtLf1-169" vertex="1">
          <mxGeometry y="156" width="288.4" height="26" as="geometry" />
        </mxCell>
        <mxCell id="wobP2IaSqv85BQ5EtLf1-176" value="Service" style="swimlane;fontStyle=0;childLayout=stackLayout;horizontal=1;startSize=26;horizontalStack=0;resizeParent=1;resizeParentMax=0;resizeLast=0;collapsible=1;marginBottom=0;whiteSpace=wrap;html=1;" parent="wobP2IaSqv85BQ5EtLf1-135" vertex="1">
          <mxGeometry x="360" y="210.0033333333331" width="163.33" height="287.9259259259259" as="geometry" />
        </mxCell>
        <mxCell id="wobP2IaSqv85BQ5EtLf1-177" value="- id: int&lt;span style=&quot;white-space: pre;&quot;&gt;&#x9;&lt;/span&gt;" style="text;strokeColor=none;fillColor=none;align=left;verticalAlign=top;spacingLeft=4;spacingRight=4;overflow=hidden;rotatable=0;points=[[0,0.5],[1,0.5]];portConstraint=eastwest;whiteSpace=wrap;html=1;" parent="wobP2IaSqv85BQ5EtLf1-176" vertex="1">
          <mxGeometry y="26" width="163.33" height="32.74074074074074" as="geometry" />
        </mxCell>
        <mxCell id="wobP2IaSqv85BQ5EtLf1-178" value="- name: string" style="text;strokeColor=none;fillColor=none;align=left;verticalAlign=top;spacingLeft=4;spacingRight=4;overflow=hidden;rotatable=0;points=[[0,0.5],[1,0.5]];portConstraint=eastwest;whiteSpace=wrap;html=1;" parent="wobP2IaSqv85BQ5EtLf1-176" vertex="1">
          <mxGeometry y="58.74074074074074" width="163.33" height="32.74074074074074" as="geometry" />
        </mxCell>
        <mxCell id="wobP2IaSqv85BQ5EtLf1-179" value="- type: string" style="text;strokeColor=none;fillColor=none;align=left;verticalAlign=top;spacingLeft=4;spacingRight=4;overflow=hidden;rotatable=0;points=[[0,0.5],[1,0.5]];portConstraint=eastwest;whiteSpace=wrap;html=1;" parent="wobP2IaSqv85BQ5EtLf1-176" vertex="1">
          <mxGeometry y="91.48148148148148" width="163.33" height="32.74074074074074" as="geometry" />
        </mxCell>
        <mxCell id="wobP2IaSqv85BQ5EtLf1-180" value="- price: int" style="text;strokeColor=none;fillColor=none;align=left;verticalAlign=top;spacingLeft=4;spacingRight=4;overflow=hidden;rotatable=0;points=[[0,0.5],[1,0.5]];portConstraint=eastwest;whiteSpace=wrap;html=1;" parent="wobP2IaSqv85BQ5EtLf1-176" vertex="1">
          <mxGeometry y="124.22222222222223" width="163.33" height="32.74074074074074" as="geometry" />
        </mxCell>
        <mxCell id="wobP2IaSqv85BQ5EtLf1-181" value="- availability: string" style="text;strokeColor=none;fillColor=none;align=left;verticalAlign=top;spacingLeft=4;spacingRight=4;overflow=hidden;rotatable=0;points=[[0,0.5],[1,0.5]];portConstraint=eastwest;whiteSpace=wrap;html=1;" parent="wobP2IaSqv85BQ5EtLf1-176" vertex="1">
          <mxGeometry y="156.96296296296296" width="163.33" height="32.74074074074074" as="geometry" />
        </mxCell>
        <mxCell id="wobP2IaSqv85BQ5EtLf1-182" value="- location: string" style="text;strokeColor=none;fillColor=none;align=left;verticalAlign=top;spacingLeft=4;spacingRight=4;overflow=hidden;rotatable=0;points=[[0,0.5],[1,0.5]];portConstraint=eastwest;whiteSpace=wrap;html=1;" parent="wobP2IaSqv85BQ5EtLf1-176" vertex="1">
          <mxGeometry y="189.7037037037037" width="163.33" height="32.74074074074074" as="geometry" />
        </mxCell>
        <mxCell id="wobP2IaSqv85BQ5EtLf1-183" value="- features: list" style="text;strokeColor=none;fillColor=none;align=left;verticalAlign=top;spacingLeft=4;spacingRight=4;overflow=hidden;rotatable=0;points=[[0,0.5],[1,0.5]];portConstraint=eastwest;whiteSpace=wrap;html=1;" parent="wobP2IaSqv85BQ5EtLf1-176" vertex="1">
          <mxGeometry y="222.44444444444443" width="163.33" height="32.74074074074074" as="geometry" />
        </mxCell>
        <mxCell id="wobP2IaSqv85BQ5EtLf1-184" value="- reviews: list" style="text;strokeColor=none;fillColor=none;align=left;verticalAlign=top;spacingLeft=4;spacingRight=4;overflow=hidden;rotatable=0;points=[[0,0.5],[1,0.5]];portConstraint=eastwest;whiteSpace=wrap;html=1;" parent="wobP2IaSqv85BQ5EtLf1-176" vertex="1">
          <mxGeometry y="255.18518518518516" width="163.33" height="32.74074074074074" as="geometry" />
        </mxCell>
        <mxCell id="wobP2IaSqv85BQ5EtLf1-191" value="history" style="swimlane;fontStyle=0;childLayout=stackLayout;horizontal=1;startSize=26;horizontalStack=0;resizeParent=1;resizeParentMax=0;resizeLast=0;collapsible=1;marginBottom=0;whiteSpace=wrap;html=1;" parent="wobP2IaSqv85BQ5EtLf1-135" vertex="1">
          <mxGeometry x="120.00285714285701" y="210.00555555555593" width="205.7142857142857" height="189.70370370370367" as="geometry" />
        </mxCell>
        <mxCell id="wobP2IaSqv85BQ5EtLf1-192" value="- id: int" style="text;strokeColor=none;fillColor=none;align=left;verticalAlign=top;spacingLeft=4;spacingRight=4;overflow=hidden;rotatable=0;points=[[0,0.5],[1,0.5]];portConstraint=eastwest;whiteSpace=wrap;html=1;" parent="wobP2IaSqv85BQ5EtLf1-191" vertex="1">
          <mxGeometry y="26" width="205.7142857142857" height="32.74074074074073" as="geometry" />
        </mxCell>
        <mxCell id="wobP2IaSqv85BQ5EtLf1-193" value="- serviceID: int" style="text;strokeColor=none;fillColor=none;align=left;verticalAlign=top;spacingLeft=4;spacingRight=4;overflow=hidden;rotatable=0;points=[[0,0.5],[1,0.5]];portConstraint=eastwest;whiteSpace=wrap;html=1;" parent="wobP2IaSqv85BQ5EtLf1-191" vertex="1">
          <mxGeometry y="58.74074074074073" width="205.7142857142857" height="32.74074074074073" as="geometry" />
        </mxCell>
        <mxCell id="wobP2IaSqv85BQ5EtLf1-194" value="- costumerID: int" style="text;strokeColor=none;fillColor=none;align=left;verticalAlign=top;spacingLeft=4;spacingRight=4;overflow=hidden;rotatable=0;points=[[0,0.5],[1,0.5]];portConstraint=eastwest;whiteSpace=wrap;html=1;" parent="wobP2IaSqv85BQ5EtLf1-191" vertex="1">
          <mxGeometry y="91.48148148148147" width="205.7142857142857" height="32.74074074074073" as="geometry" />
        </mxCell>
        <mxCell id="wobP2IaSqv85BQ5EtLf1-195" value="- text: string" style="text;strokeColor=none;fillColor=none;align=left;verticalAlign=top;spacingLeft=4;spacingRight=4;overflow=hidden;rotatable=0;points=[[0,0.5],[1,0.5]];portConstraint=eastwest;whiteSpace=wrap;html=1;" parent="wobP2IaSqv85BQ5EtLf1-191" vertex="1">
          <mxGeometry y="124.2222222222222" width="205.7142857142857" height="32.74074074074073" as="geometry" />
        </mxCell>
        <mxCell id="wobP2IaSqv85BQ5EtLf1-196" value="- date: date" style="text;strokeColor=none;fillColor=none;align=left;verticalAlign=top;spacingLeft=4;spacingRight=4;overflow=hidden;rotatable=0;points=[[0,0.5],[1,0.5]];portConstraint=eastwest;whiteSpace=wrap;html=1;" parent="wobP2IaSqv85BQ5EtLf1-191" vertex="1">
          <mxGeometry y="156.96296296296293" width="205.7142857142857" height="32.74074074074073" as="geometry" />
        </mxCell>
        <mxCell id="wobP2IaSqv85BQ5EtLf1-185" style="edgeStyle=orthogonalEdgeStyle;rounded=0;orthogonalLoop=1;jettySize=auto;html=1;dashed=1;entryX=0;entryY=0;entryDx=0;entryDy=127.5;entryPerimeter=0;" parent="1" source="wobP2IaSqv85BQ5EtLf1-2" target="wobP2IaSqv85BQ5EtLf1-159" edge="1">
          <mxGeometry relative="1" as="geometry">
            <mxPoint x="1085" y="2966" as="targetPoint" />
            <Array as="points">
              <mxPoint x="1110" y="1910" />
              <mxPoint x="1110" y="3062" />
            </Array>
          </mxGeometry>
        </mxCell>
        <mxCell id="wobP2IaSqv85BQ5EtLf1-186" style="edgeStyle=orthogonalEdgeStyle;rounded=0;orthogonalLoop=1;jettySize=auto;html=1;dashed=1;entryX=0.928;entryY=0.086;entryDx=0;entryDy=0;entryPerimeter=0;" parent="1" source="wobP2IaSqv85BQ5EtLf1-39" target="wobP2IaSqv85BQ5EtLf1-159" edge="1">
          <mxGeometry relative="1" as="geometry">
            <Array as="points">
              <mxPoint x="2110" y="1780" />
            </Array>
            <mxPoint x="1500" y="2984" as="targetPoint" />
          </mxGeometry>
        </mxCell>
        <mxCell id="wobP2IaSqv85BQ5EtLf1-187" style="edgeStyle=orthogonalEdgeStyle;rounded=0;orthogonalLoop=1;jettySize=auto;html=1;dashed=1;entryX=0.565;entryY=0.067;entryDx=0;entryDy=0;entryPerimeter=0;" parent="1" source="wobP2IaSqv85BQ5EtLf1-16" target="wobP2IaSqv85BQ5EtLf1-136" edge="1">
          <mxGeometry relative="1" as="geometry">
            <Array as="points">
              <mxPoint x="2230" y="2250" />
            </Array>
            <mxPoint x="2200" y="2950" as="targetPoint" />
          </mxGeometry>
        </mxCell>
        <mxCell id="wobP2IaSqv85BQ5EtLf1-188" style="edgeStyle=orthogonalEdgeStyle;rounded=0;orthogonalLoop=1;jettySize=auto;html=1;dashed=1;entryX=0.955;entryY=0.074;entryDx=0;entryDy=0;entryPerimeter=0;" parent="1" source="wobP2IaSqv85BQ5EtLf1-51" target="wobP2IaSqv85BQ5EtLf1-136" edge="1">
          <mxGeometry relative="1" as="geometry">
            <Array as="points">
              <mxPoint x="2980" y="1930" />
              <mxPoint x="2980" y="2740" />
              <mxPoint x="2472" y="2740" />
            </Array>
            <mxPoint x="2460" y="2970" as="targetPoint" />
          </mxGeometry>
        </mxCell>
        <mxCell id="bs7dx5y6tpF_CZ55wjF5-1" value="Presentation Layer" style="shape=folder;fontStyle=1;tabWidth=140;tabHeight=30;tabPosition=left;html=1;boundedLbl=1;labelInHeader=1;container=1;collapsible=0;recursiveResize=0;whiteSpace=wrap;" parent="1" vertex="1">
          <mxGeometry x="1280" y="660" width="1250" height="700" as="geometry" />
        </mxCell>
        <mxCell id="bs7dx5y6tpF_CZ55wjF5-2" value="Users Package" style="shape=folder;xSize=90;align=left;spacingLeft=10;align=left;verticalAlign=top;spacingLeft=5;spacingTop=-4;tabWidth=90;tabHeight=20;tabPosition=left;html=1;recursiveResize=0;fillColor=#f5f5f5;fontColor=#333333;strokeColor=#666666;" parent="bs7dx5y6tpF_CZ55wjF5-1" vertex="1">
          <mxGeometry x="30" y="60" width="580" height="590" as="geometry" />
        </mxCell>
        <mxCell id="bs7dx5y6tpF_CZ55wjF5-5" value="Admin Package" style="shape=folder;xSize=90;align=left;spacingLeft=10;align=left;verticalAlign=top;spacingLeft=5;spacingTop=-4;tabWidth=100;tabHeight=20;tabPosition=left;html=1;recursiveResize=0;" parent="bs7dx5y6tpF_CZ55wjF5-1" vertex="1">
          <mxGeometry x="70" y="90" width="210" height="280" as="geometry" />
        </mxCell>
        <mxCell id="bs7dx5y6tpF_CZ55wjF5-6" value="Admin Panel" style="swimlane;fontStyle=0;childLayout=stackLayout;horizontal=1;startSize=26;fillColor=none;horizontalStack=0;resizeParent=1;resizeParentMax=0;resizeLast=0;collapsible=1;marginBottom=0;whiteSpace=wrap;html=1;" parent="bs7dx5y6tpF_CZ55wjF5-1" vertex="1">
          <mxGeometry x="100" y="120" width="140" height="232" as="geometry" />
        </mxCell>
        <mxCell id="bs7dx5y6tpF_CZ55wjF5-7" value="- Profile" style="text;strokeColor=none;fillColor=none;align=left;verticalAlign=top;spacingLeft=4;spacingRight=4;overflow=hidden;rotatable=0;points=[[0,0.5],[1,0.5]];portConstraint=eastwest;whiteSpace=wrap;html=1;" parent="bs7dx5y6tpF_CZ55wjF5-6" vertex="1">
          <mxGeometry y="26" width="140" height="26" as="geometry" />
        </mxCell>
        <mxCell id="bs7dx5y6tpF_CZ55wjF5-29" value="- Users" style="text;strokeColor=none;fillColor=none;align=left;verticalAlign=top;spacingLeft=4;spacingRight=4;overflow=hidden;rotatable=0;points=[[0,0.5],[1,0.5]];portConstraint=eastwest;whiteSpace=wrap;html=1;" parent="bs7dx5y6tpF_CZ55wjF5-6" vertex="1">
          <mxGeometry y="52" width="140" height="26" as="geometry" />
        </mxCell>
        <mxCell id="bs7dx5y6tpF_CZ55wjF5-8" value="- Comments" style="text;strokeColor=none;fillColor=none;align=left;verticalAlign=top;spacingLeft=4;spacingRight=4;overflow=hidden;rotatable=0;points=[[0,0.5],[1,0.5]];portConstraint=eastwest;whiteSpace=wrap;html=1;" parent="bs7dx5y6tpF_CZ55wjF5-6" vertex="1">
          <mxGeometry y="78" width="140" height="26" as="geometry" />
        </mxCell>
        <mxCell id="bs7dx5y6tpF_CZ55wjF5-9" value="- Services" style="text;strokeColor=none;fillColor=none;align=left;verticalAlign=top;spacingLeft=4;spacingRight=4;overflow=hidden;rotatable=0;points=[[0,0.5],[1,0.5]];portConstraint=eastwest;whiteSpace=wrap;html=1;" parent="bs7dx5y6tpF_CZ55wjF5-6" vertex="1">
          <mxGeometry y="104" width="140" height="32" as="geometry" />
        </mxCell>
        <mxCell id="bs7dx5y6tpF_CZ55wjF5-10" value="- Orders" style="text;strokeColor=none;fillColor=none;align=left;verticalAlign=top;spacingLeft=4;spacingRight=4;overflow=hidden;rotatable=0;points=[[0,0.5],[1,0.5]];portConstraint=eastwest;whiteSpace=wrap;html=1;" parent="bs7dx5y6tpF_CZ55wjF5-6" vertex="1">
          <mxGeometry y="136" width="140" height="32" as="geometry" />
        </mxCell>
        <mxCell id="bs7dx5y6tpF_CZ55wjF5-11" value="- Payments" style="text;strokeColor=none;fillColor=none;align=left;verticalAlign=top;spacingLeft=4;spacingRight=4;overflow=hidden;rotatable=0;points=[[0,0.5],[1,0.5]];portConstraint=eastwest;whiteSpace=wrap;html=1;" parent="bs7dx5y6tpF_CZ55wjF5-6" vertex="1">
          <mxGeometry y="168" width="140" height="32" as="geometry" />
        </mxCell>
        <mxCell id="bs7dx5y6tpF_CZ55wjF5-12" value="- Reports" style="text;strokeColor=none;fillColor=none;align=left;verticalAlign=top;spacingLeft=4;spacingRight=4;overflow=hidden;rotatable=0;points=[[0,0.5],[1,0.5]];portConstraint=eastwest;whiteSpace=wrap;html=1;" parent="bs7dx5y6tpF_CZ55wjF5-6" vertex="1">
          <mxGeometry y="200" width="140" height="32" as="geometry" />
        </mxCell>
        <mxCell id="bs7dx5y6tpF_CZ55wjF5-13" value="Customer Package" style="shape=folder;xSize=90;align=left;spacingLeft=10;align=left;verticalAlign=top;spacingLeft=5;spacingTop=-4;tabWidth=120;tabHeight=20;tabPosition=left;html=1;recursiveResize=0;" parent="bs7dx5y6tpF_CZ55wjF5-1" vertex="1">
          <mxGeometry x="340" y="111" width="200" height="239" as="geometry" />
        </mxCell>
        <mxCell id="bs7dx5y6tpF_CZ55wjF5-14" value="Customer Panel" style="swimlane;fontStyle=0;childLayout=stackLayout;horizontal=1;startSize=26;fillColor=none;horizontalStack=0;resizeParent=1;resizeParentMax=0;resizeLast=0;collapsible=1;marginBottom=0;whiteSpace=wrap;html=1;" parent="bs7dx5y6tpF_CZ55wjF5-1" vertex="1">
          <mxGeometry x="370" y="150" width="140" height="184" as="geometry">
            <mxRectangle x="500" y="132" width="130" height="30" as="alternateBounds" />
          </mxGeometry>
        </mxCell>
        <mxCell id="bs7dx5y6tpF_CZ55wjF5-15" value="- Profile" style="text;strokeColor=none;fillColor=none;align=left;verticalAlign=top;spacingLeft=4;spacingRight=4;overflow=hidden;rotatable=0;points=[[0,0.5],[1,0.5]];portConstraint=eastwest;whiteSpace=wrap;html=1;" parent="bs7dx5y6tpF_CZ55wjF5-14" vertex="1">
          <mxGeometry y="26" width="140" height="26" as="geometry" />
        </mxCell>
        <mxCell id="bs7dx5y6tpF_CZ55wjF5-16" value="- comments" style="text;strokeColor=none;fillColor=none;align=left;verticalAlign=top;spacingLeft=4;spacingRight=4;overflow=hidden;rotatable=0;points=[[0,0.5],[1,0.5]];portConstraint=eastwest;whiteSpace=wrap;html=1;" parent="bs7dx5y6tpF_CZ55wjF5-14" vertex="1">
          <mxGeometry y="52" width="140" height="26" as="geometry" />
        </mxCell>
        <mxCell id="bs7dx5y6tpF_CZ55wjF5-17" value="- Payments" style="text;strokeColor=none;fillColor=none;align=left;verticalAlign=top;spacingLeft=4;spacingRight=4;overflow=hidden;rotatable=0;points=[[0,0.5],[1,0.5]];portConstraint=eastwest;whiteSpace=wrap;html=1;" parent="bs7dx5y6tpF_CZ55wjF5-14" vertex="1">
          <mxGeometry y="78" width="140" height="34" as="geometry" />
        </mxCell>
        <mxCell id="bs7dx5y6tpF_CZ55wjF5-18" value="- Orders" style="text;strokeColor=none;fillColor=none;align=left;verticalAlign=top;spacingLeft=4;spacingRight=4;overflow=hidden;rotatable=0;points=[[0,0.5],[1,0.5]];portConstraint=eastwest;whiteSpace=wrap;html=1;" parent="bs7dx5y6tpF_CZ55wjF5-14" vertex="1">
          <mxGeometry y="112" width="140" height="36" as="geometry" />
        </mxCell>
        <mxCell id="bs7dx5y6tpF_CZ55wjF5-19" value="- History" style="text;strokeColor=none;fillColor=none;align=left;verticalAlign=top;spacingLeft=4;spacingRight=4;overflow=hidden;rotatable=0;points=[[0,0.5],[1,0.5]];portConstraint=eastwest;whiteSpace=wrap;html=1;" parent="bs7dx5y6tpF_CZ55wjF5-14" vertex="1">
          <mxGeometry y="148" width="140" height="36" as="geometry" />
        </mxCell>
        <mxCell id="bs7dx5y6tpF_CZ55wjF5-20" value="Provider Package" style="shape=folder;xSize=90;align=left;spacingLeft=10;align=left;verticalAlign=top;spacingLeft=5;spacingTop=-4;tabWidth=110;tabHeight=20;tabPosition=left;html=1;recursiveResize=0;" parent="bs7dx5y6tpF_CZ55wjF5-1" vertex="1">
          <mxGeometry x="100" y="390" width="180" height="230" as="geometry" />
        </mxCell>
        <mxCell id="bs7dx5y6tpF_CZ55wjF5-21" value="provider Panel" style="swimlane;fontStyle=0;childLayout=stackLayout;horizontal=1;startSize=26;fillColor=none;horizontalStack=0;resizeParent=1;resizeParentMax=0;resizeLast=0;collapsible=1;marginBottom=0;whiteSpace=wrap;html=1;" parent="bs7dx5y6tpF_CZ55wjF5-1" vertex="1">
          <mxGeometry x="120" y="420" width="140" height="180" as="geometry">
            <mxRectangle x="110" y="417" width="120" height="30" as="alternateBounds" />
          </mxGeometry>
        </mxCell>
        <mxCell id="bs7dx5y6tpF_CZ55wjF5-22" value="- Profile" style="text;strokeColor=none;fillColor=none;align=left;verticalAlign=top;spacingLeft=4;spacingRight=4;overflow=hidden;rotatable=0;points=[[0,0.5],[1,0.5]];portConstraint=eastwest;whiteSpace=wrap;html=1;" parent="bs7dx5y6tpF_CZ55wjF5-21" vertex="1">
          <mxGeometry y="26" width="140" height="26" as="geometry" />
        </mxCell>
        <mxCell id="bs7dx5y6tpF_CZ55wjF5-23" value="- Comments" style="text;strokeColor=none;fillColor=none;align=left;verticalAlign=top;spacingLeft=4;spacingRight=4;overflow=hidden;rotatable=0;points=[[0,0.5],[1,0.5]];portConstraint=eastwest;whiteSpace=wrap;html=1;" parent="bs7dx5y6tpF_CZ55wjF5-21" vertex="1">
          <mxGeometry y="52" width="140" height="32" as="geometry" />
        </mxCell>
        <mxCell id="bs7dx5y6tpF_CZ55wjF5-24" value="- Services" style="text;strokeColor=none;fillColor=none;align=left;verticalAlign=top;spacingLeft=4;spacingRight=4;overflow=hidden;rotatable=0;points=[[0,0.5],[1,0.5]];portConstraint=eastwest;whiteSpace=wrap;html=1;" parent="bs7dx5y6tpF_CZ55wjF5-21" vertex="1">
          <mxGeometry y="84" width="140" height="32" as="geometry" />
        </mxCell>
        <mxCell id="bs7dx5y6tpF_CZ55wjF5-30" value="- Payments" style="text;strokeColor=none;fillColor=none;align=left;verticalAlign=top;spacingLeft=4;spacingRight=4;overflow=hidden;rotatable=0;points=[[0,0.5],[1,0.5]];portConstraint=eastwest;whiteSpace=wrap;html=1;" parent="bs7dx5y6tpF_CZ55wjF5-21" vertex="1">
          <mxGeometry y="116" width="140" height="32" as="geometry" />
        </mxCell>
        <mxCell id="bs7dx5y6tpF_CZ55wjF5-25" value="- History" style="text;strokeColor=none;fillColor=none;align=left;verticalAlign=top;spacingLeft=4;spacingRight=4;overflow=hidden;rotatable=0;points=[[0,0.5],[1,0.5]];portConstraint=eastwest;whiteSpace=wrap;html=1;" parent="bs7dx5y6tpF_CZ55wjF5-21" vertex="1">
          <mxGeometry y="148" width="140" height="32" as="geometry" />
        </mxCell>
        <mxCell id="bs7dx5y6tpF_CZ55wjF5-26" value="Navigation Package" style="shape=folder;fontStyle=1;tabWidth=130;tabHeight=23;tabPosition=left;html=1;boundedLbl=1;labelInHeader=1;container=1;collapsible=0;recursiveResize=0;whiteSpace=wrap;fillColor=#EFEFEF;" parent="bs7dx5y6tpF_CZ55wjF5-1" vertex="1">
          <mxGeometry x="890" y="180" width="300" height="210" as="geometry" />
        </mxCell>
        <mxCell id="bs7dx5y6tpF_CZ55wjF5-27" value="Search" style="swimlane;fontStyle=1;align=center;verticalAlign=middle;childLayout=stackLayout;horizontal=1;startSize=29;horizontalStack=0;resizeParent=1;resizeParentMax=0;resizeLast=0;collapsible=0;marginBottom=0;html=1;whiteSpace=wrap;" parent="bs7dx5y6tpF_CZ55wjF5-26" vertex="1">
          <mxGeometry x="70" y="50" width="160" height="81" as="geometry" />
        </mxCell>
        <mxCell id="bs7dx5y6tpF_CZ55wjF5-32" value="- Filter" style="text;strokeColor=none;fillColor=none;align=left;verticalAlign=top;spacingLeft=4;spacingRight=4;overflow=hidden;rotatable=0;points=[[0,0.5],[1,0.5]];portConstraint=eastwest;whiteSpace=wrap;html=1;" parent="bs7dx5y6tpF_CZ55wjF5-27" vertex="1">
          <mxGeometry y="29" width="160" height="26" as="geometry" />
        </mxCell>
        <mxCell id="bs7dx5y6tpF_CZ55wjF5-31" value="- Recommanation" style="text;strokeColor=none;fillColor=none;align=left;verticalAlign=top;spacingLeft=4;spacingRight=4;overflow=hidden;rotatable=0;points=[[0,0.5],[1,0.5]];portConstraint=eastwest;whiteSpace=wrap;html=1;" parent="bs7dx5y6tpF_CZ55wjF5-27" vertex="1">
          <mxGeometry y="55" width="160" height="26" as="geometry" />
        </mxCell>
        <mxCell id="bs7dx5y6tpF_CZ55wjF5-28" style="edgeStyle=orthogonalEdgeStyle;rounded=0;orthogonalLoop=1;jettySize=auto;html=1;exitX=0.998;exitY=0.505;exitDx=0;exitDy=0;exitPerimeter=0;entryX=0.011;entryY=0.456;entryDx=0;entryDy=0;entryPerimeter=0;dashed=1;startArrow=classic;startFill=1;endArrow=none;endFill=0;" parent="bs7dx5y6tpF_CZ55wjF5-1" source="bs7dx5y6tpF_CZ55wjF5-2" target="bs7dx5y6tpF_CZ55wjF5-26" edge="1">
          <mxGeometry relative="1" as="geometry" />
        </mxCell>
        <mxCell id="bs7dx5y6tpF_CZ55wjF5-36" style="edgeStyle=orthogonalEdgeStyle;rounded=0;orthogonalLoop=1;jettySize=auto;html=1;dashed=1;" parent="1" source="wobP2IaSqv85BQ5EtLf1-27" edge="1">
          <mxGeometry relative="1" as="geometry">
            <Array as="points">
              <mxPoint x="1170" y="2330" />
              <mxPoint x="1170" y="3720" />
            </Array>
            <mxPoint x="1340" y="3720" as="targetPoint" />
          </mxGeometry>
        </mxCell>
        <mxCell id="bs7dx5y6tpF_CZ55wjF5-38" style="edgeStyle=orthogonalEdgeStyle;rounded=0;orthogonalLoop=1;jettySize=auto;html=1;entryX=-0.005;entryY=0.478;entryDx=0;entryDy=0;entryPerimeter=0;dashed=1;" parent="1" source="bs7dx5y6tpF_CZ55wjF5-2" target="wobP2IaSqv85BQ5EtLf1-27" edge="1">
          <mxGeometry relative="1" as="geometry">
            <Array as="points">
              <mxPoint x="1170" y="1015" />
              <mxPoint x="1170" y="2253" />
            </Array>
          </mxGeometry>
        </mxCell>
        <mxCell id="bs7dx5y6tpF_CZ55wjF5-39" style="edgeStyle=orthogonalEdgeStyle;rounded=0;orthogonalLoop=1;jettySize=auto;html=1;entryX=0.458;entryY=0.083;entryDx=0;entryDy=0;entryPerimeter=0;dashed=1;" parent="1" source="bs7dx5y6tpF_CZ55wjF5-2" target="wobP2IaSqv85BQ5EtLf1-2" edge="1">
          <mxGeometry relative="1" as="geometry" />
        </mxCell>
        <mxCell id="bs7dx5y6tpF_CZ55wjF5-40" style="edgeStyle=orthogonalEdgeStyle;rounded=0;orthogonalLoop=1;jettySize=auto;html=1;exitX=0.75;exitY=1;exitDx=0;exitDy=0;exitPerimeter=0;entryX=0.475;entryY=0.092;entryDx=0;entryDy=0;entryPerimeter=0;dashed=1;" parent="1" source="bs7dx5y6tpF_CZ55wjF5-2" target="wobP2IaSqv85BQ5EtLf1-39" edge="1">
          <mxGeometry relative="1" as="geometry" />
        </mxCell>
        <mxCell id="bs7dx5y6tpF_CZ55wjF5-41" style="edgeStyle=orthogonalEdgeStyle;rounded=0;orthogonalLoop=1;jettySize=auto;html=1;exitX=0;exitY=0;exitDx=580;exitDy=447.5;exitPerimeter=0;entryX=0.441;entryY=0.082;entryDx=0;entryDy=0;entryPerimeter=0;dashed=1;" parent="1" source="bs7dx5y6tpF_CZ55wjF5-2" target="wobP2IaSqv85BQ5EtLf1-51" edge="1">
          <mxGeometry relative="1" as="geometry" />
        </mxCell>
        <mxCell id="TeGjEgkof3uOZw_AsI40-1" style="edgeStyle=orthogonalEdgeStyle;rounded=0;orthogonalLoop=1;jettySize=auto;html=1;exitX=0;exitY=0;exitDx=580;exitDy=590;exitPerimeter=0;entryX=-0.005;entryY=0.348;entryDx=0;entryDy=0;entryPerimeter=0;dashed=1;" edge="1" parent="1" source="bs7dx5y6tpF_CZ55wjF5-2" target="wobP2IaSqv85BQ5EtLf1-16">
          <mxGeometry relative="1" as="geometry">
            <Array as="points">
              <mxPoint x="1890" y="1290" />
              <mxPoint x="2090" y="1290" />
              <mxPoint x="2090" y="2225" />
            </Array>
          </mxGeometry>
        </mxCell>
      </root>
    </mxGraphModel>
  </diagram>
</mxfile>
